<?xml version="1.0" encoding="UTF-8"?>
<svg id="Layer_1" data-name="Layer 1" xmlns="http://www.w3.org/2000/svg" viewBox="0 0 600 600">
  <defs>
    <style>
      .cls-1 {
        fill: #6256a5;
      }

      .cls-2 {
        fill: #fff;
      }

      .cls-3 {
        fill: #3e317b;
      }

      .cls-4 {
        fill: #f7902b;
      }
    </style>
  </defs>
  <rect class="cls-3" x="-2.03" y="-2.4" width="604.26" height="602.13"/>
  <g>
    <path class="cls-2" d="M207.35,294.25h-8.22v15.21c0,1.27.31,2.19.95,2.78.63.58,1.55.91,2.76.99,1.21.07,2.72.06,4.51-.04v8.56c-6.45.73-10.99.12-13.64-1.83-2.65-1.95-3.97-5.44-3.97-10.46v-15.21h-6.33v-9.07h6.33v-7.39l9.38-2.85v10.24h8.22v9.07Z"/>
    <path class="cls-2" d="M243.4,317.18c-3.73,3.73-8.29,5.59-13.67,5.59s-9.93-1.86-13.64-5.59c-3.71-3.73-5.56-8.3-5.56-13.72s1.85-9.98,5.56-13.72c3.71-3.73,8.26-5.59,13.64-5.59s9.94,1.86,13.67,5.59c3.73,3.73,5.6,8.3,5.6,13.72s-1.87,9.99-5.6,13.72ZM222.71,310.7c1.87,1.9,4.2,2.85,7.02,2.85s5.16-.95,7.05-2.85c1.89-1.9,2.84-4.32,2.84-7.24s-.95-5.34-2.84-7.24c-1.89-1.9-4.24-2.85-7.05-2.85s-5.16.95-7.02,2.85c-1.87,1.9-2.8,4.32-2.8,7.24s.93,5.34,2.8,7.24Z"/>
    <path class="cls-2" d="M279.92,285.17h10.03l-13.26,36.63c-1.89,5.22-4.4,9.02-7.52,11.39-3.12,2.37-7.01,3.43-11.66,3.18v-8.78c2.52.05,4.52-.49,6-1.61,1.48-1.12,2.65-2.93,3.53-5.41l-14.91-35.4h10.25l9.48,24.58,8.05-24.58Z"/>
    <path class="cls-2" d="M320.91,285.17h10.03l-13.26,36.63c-1.89,5.22-4.4,9.02-7.52,11.39-3.12,2.37-7.01,3.43-11.66,3.18v-8.78c2.52.05,4.52-.49,6-1.61,1.48-1.12,2.65-2.93,3.53-5.41l-14.91-35.4h10.25l9.48,24.58,8.05-24.58Z"/>
    <path class="cls-2" d="M338.94,280.79c-1.55,0-2.9-.58-4.03-1.72-1.14-1.15-1.71-2.5-1.71-4.06s.57-2.93,1.71-4.1c1.14-1.17,2.48-1.75,4.03-1.75s2.97.58,4.11,1.75c1.14,1.17,1.71,2.54,1.71,4.1s-.57,2.91-1.71,4.06c-1.13,1.15-2.5,1.72-4.11,1.72ZM334.29,321.75v-36.57h9.38v36.57h-9.38Z"/>
    <path class="cls-2" d="M368.01,284.15c4.9,0,9.08,1.86,12.54,5.59,3.47,3.73,5.2,8.3,5.2,13.72s-1.73,9.98-5.2,13.72c-3.47,3.73-7.65,5.59-12.54,5.59s-9.02-1.78-11.78-5.34v4.32h-9.38v-51.2h9.38v18.95c2.77-3.56,6.69-5.34,11.78-5.34ZM359.07,310.88c1.89,1.93,4.29,2.89,7.2,2.89s5.32-.96,7.23-2.89c1.91-1.93,2.87-4.4,2.87-7.42s-.96-5.5-2.87-7.42c-1.92-1.92-4.33-2.89-7.23-2.89s-5.31.96-7.2,2.89c-1.89,1.93-2.84,4.4-2.84,7.42s.95,5.5,2.84,7.42Z"/>
    <path class="cls-2" d="M408,270.55c4.9,0,9.02,1.66,12.36,4.97,3.35,3.31,5.02,7.39,5.02,12.21s-1.67,8.9-5.02,12.21c-3.35,3.31-7.47,4.97-12.36,4.97h-8.95v16.82h-10.03v-51.2h18.98ZM408,295.49c2.13,0,3.9-.74,5.31-2.23,1.4-1.49,2.11-3.33,2.11-5.52s-.7-4.1-2.11-5.56c-1.41-1.46-3.17-2.19-5.31-2.19h-8.95v15.51h8.95Z"/>
    <path class="cls-2" d="M458.08,285.18h9.38v36.57h-9.38v-4.32c-2.81,3.56-6.76,5.34-11.86,5.34s-9-1.86-12.47-5.59c-3.47-3.73-5.2-8.3-5.2-13.72s1.73-9.98,5.2-13.72c3.47-3.73,7.63-5.59,12.47-5.59,5.09,0,9.04,1.78,11.86,5.34v-4.32ZM440.78,310.88c1.89,1.93,4.29,2.89,7.2,2.89s5.32-.96,7.23-2.89c1.91-1.93,2.87-4.4,2.87-7.42s-.96-5.5-2.87-7.42c-1.92-1.92-4.33-2.89-7.23-2.89s-5.31.96-7.2,2.89c-1.89,1.93-2.84,4.4-2.84,7.42s.95,5.5,2.84,7.42Z"/>
    <path class="cls-2" d="M498.42,285.17h10.03l-13.26,36.63c-1.89,5.22-4.4,9.02-7.52,11.39-3.12,2.37-7.01,3.43-11.66,3.18v-8.78c2.52.05,4.52-.49,6-1.61,1.48-1.12,2.65-2.93,3.53-5.41l-14.91-35.4h10.25l9.48,24.58,8.05-24.58Z"/>
    <path class="cls-1" d="M130.3,277.27h-11.77c-.71,0-1.33.48-1.51,1.17l-15.34,57.58c-.26,1,.48,1.98,1.51,1.98h11.77c.71,0,1.33-.48,1.51-1.16l15.34-57.58c.26-1-.49-1.98-1.51-1.98Z"/>
    <path class="cls-1" d="M108.16,292.37h-11.77c-.71,0-1.33.48-1.51,1.17l-3.28,12.3c-.26,1,.48,1.98,1.51,1.98h11.77c.71,0,1.33-.48,1.51-1.17l3.28-12.3c.26-1-.48-1.98-1.51-1.98Z"/>
    <path class="cls-4" d="M152.47,262h-11.77c-.71,0-1.33.48-1.51,1.17l-15.34,57.58c-.26,1,.48,1.98,1.51,1.98h11.77c.71,0,1.33-.48,1.51-1.17l15.33-57.58c.27-1-.48-1.98-1.51-1.98Z"/>
    <path class="cls-4" d="M168.53,269.72h-11.77c-.71,0-1.33.48-1.51,1.17l-3.28,12.3c-.26,1,.48,1.98,1.51,1.98h11.77c.71,0,1.33-.48,1.51-1.17l3.28-12.3c.26-1-.48-1.98-1.51-1.98Z"/>
  </g>
</svg>